<svg xmlns="http://www.w3.org/2000/svg" viewBox="0 0 841.9 595.3"><g fill="#61DAFB"><path d="M666.3 296.5c0-25.1-19.7-45.7-44.7-45.7-7.1 0-14.1 1.8-20.3 5.1-19.6-34.8-44.7-66.2-73.8-92.6 4.3-13.5 6.6-27.5 6.6-41.9 0-25.1-19.7-45.7-44.7-45.7s-44.7 20.6-44.7 45.7c0 14.4 2.3 28.4 6.6 41.9-29.1 26.4-54.2 57.8-73.8 92.6-6.2-3.3-13.2-5.1-20.3-5.1-25 0-44.7 20.6-44.7 45.7s19.7 45.7 44.7 45.7c7.1 0 14.1-1.8 20.3-5.1 19.6 34.8 44.7 66.2 73.8 92.6-4.3 13.5-6.6 27.5-6.6 41.9 0 25.1 19.7 45.7 44.7 45.7s44.7-20.6 44.7-45.7c0-14.4-2.3-28.4-6.6-41.9 29.1-26.4 54.2-57.8 73.8-92.6 6.2 3.3 13.2 5.1 20.3 5.1 25 0 44.7-20.6 44.7-45.7zM421 338.6c-23.4 0-42.4-19.1-42.4-42.6s19-42.6 42.4-42.6 42.4 19.1 42.4 42.6-19 42.6-42.4 42.6z"/><path d="M520.5 78.1C500.9 40.2 463.6 0 421 0c-42.6 0-79.9 40.2-99.5 78.1-19.6 37.9-29.7 81.6-29.7 120.4s10.1 82.5 29.7 120.4c19.6 37.9 56.9 78.1 99.5 78.1 42.6 0 79.9-40.2 99.5-78.1 19.6-37.9 29.7-81.6 29.7-120.4s-10.1-82.5-29.7-120.4zm-99.5 367.2c-35.2 0-67.2-33.2-84.2-66.1-17-32.9-25.7-70.7-25.7-110.7s8.7-77.8 25.7-110.7c17-32.9 49-66.1 84.2-66.1s67.2 33.2 84.2 66.1c17 32.9 25.7 70.7 25.7 110.7s-8.7 77.8-25.7 110.7c-17 32.9-49 66.1-84.2 66.1z"/><path d="M421 130.6c-74.2 0-142.2 6.6-193.8 18.7-51.6 12.1-89.2 28.6-104.2 48.1-15 19.5-15 44.9 0 64.4 15 19.5 52.6 36 104.2 48.1 51.6 12.1 119.6 18.7 193.8 18.7s142.2-6.6 193.8-18.7c51.6-12.1 89.2-28.6 104.2-48.1 15-19.5 15-44.9 0-64.4-15-19.5-52.6-36-104.2-48.1-51.6-12.1-119.6-18.7-193.8-18.7zm0 228.6c-70.6 0-136.6-6.3-186.2-17.7-49.6-11.4-85.7-26.7-99.7-44.2-14-17.5-14-40.2 0-57.7 14-17.5 50.1-32.8 99.7-44.2 49.6-11.4 115.6-17.7 186.2-17.7s136.6 6.3 186.2 17.7c49.6 11.4 85.7 26.7 99.7 44.2 14 17.5 14 40.2 0 57.7-14 17.5-50.1 32.8-99.7 44.2-49.6 11.4-115.6 17.7-186.2 17.7z"/></g></svg>
